<svg width="61" height="57" viewBox="0 0 61 57" fill="none" xmlns="http://www.w3.org/2000/svg">
<path d="M2 32.1053L19.8185 13.3776C21.3629 11.7544 23.9393 11.7162 25.5312 13.2928L28.1053 15.8421M28.1053 15.8421L33.5789 21.2632L43.341 30.9314C44.0996 31.6826 44.5263 32.7059 44.5263 33.7734V39.6842C44.5263 41.8934 42.7355 43.6842 40.5263 43.6842H36.3158C34.1066 43.6842 32.3158 41.8934 32.3158 39.6842V36.169C32.3158 35.1793 31.9489 34.2248 31.2861 33.4899L25.4804 27.0532C23.9361 25.3411 21.268 25.2856 19.6538 26.932L13.249 33.465C12.5159 34.2127 12.1053 35.2181 12.1053 36.2653V43.8782C12.1053 44.8394 12.4428 45.7769 13.1114 46.4675C17.9812 51.4972 24.8536 54.6316 32.4698 54.6316C47.2362 54.6316 59.2067 42.8496 59.2067 28.3158C59.2067 13.782 47.2362 2 32.4698 2C27.381 2 22.6243 3.39927 18.5751 5.82822M28.1053 15.8421L30.8244 13.1491C32.3594 11.6288 34.8243 11.6022 36.3918 13.0889L54 29.7895" stroke="url(#paint0_linear_611_72)" stroke-width="3" stroke-linecap="round"/>
<defs>
<linearGradient id="paint0_linear_611_72" x1="28" y1="10.4211" x2="28" y2="45.3684" gradientUnits="userSpaceOnUse">
<stop offset="0.00833313" stop-color="#CEB87D"/>
<stop offset="1" stop-color="#887951"/>
</linearGradient>
</defs>
</svg>
