<svg width="385" height="381" viewBox="0 0 385 381" fill="none" xmlns="http://www.w3.org/2000/svg">
<ellipse cx="192.5" cy="190.249" rx="192.5" ry="190.249" fill="#0A262C"/>
<path d="M36.0234 210.511L143.532 97.517C145.076 95.8939 147.653 95.8556 149.245 97.4322L175.614 123.548M175.614 123.548L204.883 152.536L262.236 209.337C262.994 210.088 263.421 211.111 263.421 212.179V268.426C263.421 270.635 261.63 272.426 259.421 272.426H202.129C199.92 272.426 198.129 270.635 198.129 268.426V225.557C198.129 224.567 197.762 223.613 197.099 222.878L149.194 169.766C147.65 168.054 144.981 167.998 143.367 169.645L91.2022 222.853C90.4692 223.601 90.0585 224.606 90.0585 225.653V279.942C90.0585 280.903 90.403 281.833 91.0395 282.554C117.251 312.214 155.877 330.964 198.952 330.964C277.911 330.964 341.92 267.963 341.92 190.248C341.92 112.532 277.911 49.5312 198.952 49.5312C171.741 49.5312 146.306 57.0135 124.654 70.0016M175.614 123.548L202.129 97.2885C203.664 95.7683 206.128 95.7416 207.696 97.2283L314.079 198.128" stroke="url(#paint0_linear_607_85)" stroke-width="17" stroke-linecap="round"/>
<defs>
<linearGradient id="paint0_linear_607_85" x1="175.051" y1="94.5605" x2="175.051" y2="281.432" gradientUnits="userSpaceOnUse">
<stop offset="0.00833313" stop-color="#CEB87D"/>
<stop offset="1" stop-color="#887951"/>
</linearGradient>
</defs>
</svg>
